<svg height="512pt" viewBox="0 -30 512 512" width="512pt" xmlns="http://www.w3.org/2000/svg"><path d="m45.191406 147.609375c.5 0 1.007813-.050781 1.519532-.15625l21.425781-4.40625c4.0625-.835937 6.675781-4.808594 5.839843-8.867187-.835937-4.0625-4.804687-6.675782-8.867187-5.839844l-21.425781 4.410156c-4.0625.835938-6.675782 4.804688-5.839844 8.863281.730469 3.550781 3.855469 5.996094 7.347656 5.996094zm0 0"/><path d="m94.3125 174.550781c.5 0 1.011719-.050781 1.523438-.15625l21.425781-4.410156c4.058593-.835937 6.671875-4.804687 5.839843-8.867187-.835937-4.058594-4.808593-6.679688-8.867187-5.835938l-21.425781 4.410156c-4.0625.835938-6.675782 4.804688-5.839844 8.863282.730469 3.550781 3.855469 5.996093 7.34375 5.996093zm0 0"/><path d="m502.308594 191.75v-14.78125c0-8.78125-3.171875-17.273438-8.9375-23.902344l-23.78125-27.359375c-3.390625-3.898437-5.253906-8.886719-5.253906-14.050781v-32.292969c7.058593-.324219 12.710937-6.152343 12.710937-13.292969v-52.746093c0-7.347657-5.976563-13.324219-13.324219-13.324219h-85.207031c-7.34375 0-13.324219 5.976562-13.324219 13.324219v52.746093c0 6.792969 5.113282 12.402344 11.6875 13.214844v32.371094c0 5.164062-1.867187 10.152344-5.253906 14.050781l-22.703125 26.113281c-.078125-.125-.152344-.257812-.234375-.382812l-9.800781-14.835938c4.539062-2.167968 7.691406-6.792968 7.691406-12.152343v-27.925781c0-7.425782-6.042969-13.46875-13.46875-13.46875h-102.632813c-4.148437 0-7.507812 3.359374-7.507812 7.507812 0 4.144531 3.359375 7.503906 7.507812 7.503906h101.085938v24.839844h-166.660156v-24.839844h30.875c4.144531 0 7.503906-3.359375 7.503906-7.503906 0-4.148438-3.359375-7.507812-7.503906-7.507812h-32.417969c-7.429687 0-13.472656 6.042968-13.472656 13.46875v27.925781c0 5.359375 3.152343 9.984375 7.695312 12.152343l-9.804687 14.835938c-.15625.234375-.289063.480469-.4375.71875-1.734375-11.019531-3.910156-20.457031-6-28.011719-6.574219-23.789062-26.582032-40.886719-50.976563-43.554687-4.050781-.441406-7.890625-.566406-11.316406-.515625l11.179687-20.578125c1.980469-3.644532.628907-8.199219-3.011718-10.179688-3.644532-1.980468-8.199219-.632812-10.183594 3.011719l-8.074219 14.863281-5.691406-27.65625c-.835937-4.0625-4.804687-6.679687-8.867187-5.839844-4.0625.835938-6.675782 4.804688-5.839844 8.863282l5.691406 27.660156-13.289062-10.464844c-3.257813-2.566406-7.976563-2.007812-10.542969 1.253906-2.566407 3.257813-2.003907 7.976563 1.253906 10.542969l18.398437 14.488281c-3.167968 1.304688-6.644531 2.933594-10.191406 4.941407-21.355468 12.085937-32.988281 35.699219-29.632812 60.148437 1.453125 10.566406 4.117187 24.398438 8.960937 40.289063h-6.695312c-6.898438 0-12.511719 5.613281-12.511719 12.511719v38.839843c0 6.898438 5.613281 12.511719 12.511719 12.511719h17.960937l5.746094 33.089844c.707031 4.085937 4.589844 6.820312 8.679688 6.113281 4.085937-.710937 6.820312-4.597656 6.113281-8.683594l-5.300781-30.519531h420.578124l-26.230468 151.070312c-3.011719 17.335938-17.96875 29.917969-35.566406 29.917969h-296.988282c-17.597656 0-32.554687-12.582031-35.5625-29.917969l-14.972656-86.230468c-.707031-4.085938-4.59375-6.824219-8.679688-6.113282-4.085937.710938-6.820312 4.597657-6.113281 8.683594l14.972657 86.226563c4.261718 24.546875 25.441406 42.367187 50.355468 42.367187h296.992188c24.914062 0 46.09375-17.820312 50.355468-42.367187l26.675782-153.636719h17.960937c6.898438 0 12.511719-5.613281 12.511719-12.511719v-38.839843c0-5.925782-4.148438-10.894532-9.691406-12.179688zm-122.101563-176.734375h81.824219v49.367187h-81.824219zm-26.289062 161.953125c0-5.164062 1.863281-10.152344 5.253906-14.050781l23.785156-27.359375c5.761719-6.628906 8.9375-15.117188 8.9375-23.902344v-32.261719h57.425781v32.261719c0 8.78125 3.175782 17.269531 8.9375 23.902344l23.785157 27.359375c3.386719 3.898437 5.253906 8.886719 5.253906 14.050781v14.449219h-133.378906zm-196.355469-8.136719c0-3.253906.949219-6.40625 2.742188-9.117187l14.398437-21.792969h147.058594l14.398437 21.792969c1.792969 2.710937 2.742188 5.863281 2.742188 9.113281v22.585937h-20v-17.367187c0-6.898437-5.613282-12.511719-12.511719-12.511719h-116.316406c-6.898438 0-12.511719 5.613282-12.511719 12.511719v17.367187h-20zm146.328125 7.71875v14.867188h-111.316406v-14.867188zm-256.617187-72.5c10.207031-5.777343 19.902343-7.855469 19.972656-7.871093.074218-.015626 5.578125-1.101563 13.253906-1.101563 2.546875 0 5.328125.121094 8.230469.4375 18.242187 1.996094 33.210937 14.800781 38.136719 32.628906 3.3125 11.988281 8.296874 34.605469 8.789062 63.273438h-100.667969c-5.84375-18.082031-8.601562-33.117188-9.863281-42.328125-2.515625-18.324219 6.179688-36 22.148438-45.039063zm449.710937 136.214844h-481.96875v-33.832031h132.824219c.699218.214844 1.445312.332031 2.214844.332031h194.523437c.585937.144531 1.199219.234375 1.832031.234375h148.394532c.757812 0 1.488281-.117188 2.179687-.324219zm0 0"/><path d="m129.390625 403.90625c.46875 0 .941406-.042969 1.417969-.136719 4.070312-.777343 6.742187-4.707031 5.964844-8.78125l-19.289063-101.097656c-.78125-4.074219-4.714844-6.746094-8.78125-5.964844-4.074219.773438-6.746094 4.707031-5.96875 8.777344l19.292969 101.101563c.683594 3.597656 3.832031 6.101562 7.363281 6.101562zm0 0"/><path d="m212.585938 403.902344c.207031 0 .417968-.007813.632812-.023438 4.128906-.34375 7.199219-3.976562 6.855469-8.105468l-8.441407-101.097657c-.34375-4.132812-3.96875-7.210937-8.105468-6.855469-4.132813.34375-7.199219 3.972657-6.855469 8.105469l8.4375 101.097657c.328125 3.917968 3.613281 6.878906 7.476563 6.878906zm0 0"/><path d="m382.609375 403.90625c3.53125 0 6.675781-2.503906 7.363281-6.101562l19.292969-101.101563c.777344-4.070313-1.894531-8.003906-5.96875-8.777344-4.070313-.78125-8.003906 1.894531-8.78125 5.964844l-19.289063 101.097656c-.777343 4.074219 1.894532 8.003907 5.964844 8.78125.476563.09375.949219.136719 1.417969.136719zm0 0"/><path d="m299.414062 403.902344c3.863282 0 7.148438-2.960938 7.476563-6.882813l8.4375-101.097656c.347656-4.132813-2.722656-7.761719-6.855469-8.105469-4.132812-.355468-7.761718 2.726563-8.105468 6.859375l-8.441407 101.097657c-.34375 4.128906 2.726563 7.757812 6.855469 8.105468.214844.015625.425781.023438.632812.023438zm0 0"/></svg>